<svg xmlns="http://www.w3.org/2000/svg" viewBox="0 0 1000 750">
  <defs>
    <linearGradient id="bg" x1="0" y1="0" x2="1" y2="1">
      <stop offset="0" stop-color="#065f46"/>
      <stop offset="1" stop-color="#34d399"/>
    </linearGradient>
  </defs>
  <rect width="1000" height="750" fill="url(#bg)"/>
  <circle cx="120" cy="110" r="200" fill="#ffffff" opacity="0.08"/>
  <circle cx="900" cy="650" r="220" fill="#ffffff" opacity="0.07"/>
  <rect x="90" y="100" width="820" height="570" rx="18" fill="#ffffff"/>
  <path d="M90 118 a18 18 0 0 1 18 -18 h784 a18 18 0 0 1 18 18 v46 h-820 z" fill="#eef1f6"/>
  <circle cx="128" cy="132" r="8" fill="#ff5f57"/>
  <circle cx="156" cy="132" r="8" fill="#febc2e"/>
  <circle cx="184" cy="132" r="8" fill="#28c840"/>
  <rect x="330" y="120" width="420" height="24" rx="12" fill="#dde3ee"/>
  <rect x="130" y="196" width="380" height="36" rx="9" fill="#0f172a" opacity="0.88"/>
  <rect x="130" y="252" width="300" height="14" rx="7" fill="#94a3b8"/>
  <g fill="#f1f5f9">
    <rect x="130" y="296" width="370" height="150" rx="14"/>
    <rect x="520" y="296" width="350" height="150" rx="14"/>
  </g>
  <g>
    <rect x="150" y="316" width="150" height="110" rx="10" fill="#34d399" opacity="0.35"/>
    <path d="M175 371 l50 -32 l50 32 z" fill="#065f46"/>
    <rect x="195" y="371" width="60" height="40" fill="#065f46" opacity="0.55"/>
    <rect x="315" y="326" width="160" height="16" rx="8" fill="#334155"/>
    <rect x="315" y="354" width="120" height="12" rx="6" fill="#94a3b8"/>
    <rect x="315" y="378" width="90" height="26" rx="13" fill="#10b981"/>
    <rect x="545" y="316" width="140" height="110" rx="10" fill="#a7f3d0" opacity="0.6"/>
    <rect x="700" y="326" width="150" height="16" rx="8" fill="#334155"/>
    <rect x="700" y="354" width="110" height="12" rx="6" fill="#94a3b8"/>
    <rect x="700" y="378" width="90" height="26" rx="13" fill="#10b981"/>
  </g>
  <g fill="#f1f5f9">
    <rect x="130" y="476" width="233" height="154" rx="12"/>
    <rect x="383" y="476" width="233" height="154" rx="12"/>
    <rect x="636" y="476" width="233" height="154" rx="12"/>
  </g>
  <g fill="#10b981" opacity="0.35">
    <rect x="150" y="496" width="70" height="54" rx="8"/>
    <rect x="403" y="496" width="70" height="54" rx="8"/>
    <rect x="656" y="496" width="70" height="54" rx="8"/>
  </g>
  <g fill="#cbd5e1">
    <rect x="150" y="566" width="150" height="12" rx="6"/>
    <rect x="403" y="566" width="150" height="12" rx="6"/>
    <rect x="656" y="566" width="150" height="12" rx="6"/>
  </g>
</svg>
